<svg width="59" height="59" viewBox="0 0 59 59" version="1.1" xmlns="http://www.w3.org/2000/svg" xmlns:xlink="http://www.w3.org/1999/xlink">
    <!-- Generator: sketchtool 53.2 (72643) - https://sketchapp.com -->
    <g id="Page-1" stroke="none" stroke-width="2" fill="none" fill-rule="evenodd">
        <g id="07_SagePresent_DesignStudio1" transform="translate(-250.000000, -937.000000)" stroke="#FFFFFF">
            <g id="erase" transform="translate(250.000000, 937.000000)">
                <g id="eraser" transform="translate(13.000000, 15.000000)" stroke-linecap="round" stroke-linejoin="round">
                    <path d="M7.91033593,25 L1.4603765,18.460471 C1.16562004,18.1621713 1,17.7573909 1,17.3352966 C1,16.9132024 1.16562004,16.508422 1.4603765,16.2101223 L17.0005562,0.465633637 C17.6135297,-0.155211212 18.6071598,-0.155211212 19.2201334,0.465633637 L27.5396235,8.89450132 C27.83438,9.19280095 28,9.5975814 28,10.0196756 C28,10.4417699 27.83438,10.8465503 27.5396235,11.14485 L13.9631574,24.9109403" id="Path"></path>
                    <path d="M6,11 L17,22" id="Path"></path>
                    <path d="M0,28 L10,28" id="Path"></path>
                    <path d="M20,28 L23,28" id="Path"></path>
                    <path d="M14,28 L17,28" id="Path"></path>
                    <path d="M27,28 L30,28" id="Path"></path>
                    <path d="M33,28 L36,28" id="Path"></path>
                </g>
            </g>
        </g>
    </g>
</svg>