<svg version="1.1" xmlns="http://www.w3.org/2000/svg" xmlns:xlink="http://www.w3.org/1999/xlink" x="0px" y="0px" width="59px" height="59px" viewBox="0 0 59 59">
    <defs></defs>
    <g id="Page-1" stroke="none" stroke-width="2" fill="none">
        <g id="07_SagePresent_DesignStudio1" transform="translate(-320.000000, -937.000000)" stroke="#FFFFFF">
            <g id="frame" transform="translate(320.000000, 937.000000)">
                <g id="focus-frame-target" transform="translate(14.000000, 17.000000)" stroke-linecap="round" stroke-linejoin="round">
                    <rect id="Rectangle" x="0" y="0" width="32" height="26" rx="1"></rect>
                    <path d="M5,9 L5,6.33333333 C5,5.59695367 5.59695367,5 6.33333333,5 L9,5" id="Path"></path>
                    <path d="M27,9 L27,6.33333333 C27,5.59695367 26.4030463,5 25.6666667,5 L23,5" id="Path"></path>
                    <path d="M5,18 L5,20.6666667 C5,21.4030463 5.59695367,22 6.33333333,22 L9,22" id="Path"></path>
                    <path d="M27,18 L27,20.6666667 C27,21.4030463 26.4030463,22 25.6666667,22 L23,22" id="Path"></path>
                    <path d="M16.5,4 L16.5,7" id="Path"></path>
                    <path d="M16.5,19 L16.5,22" id="Path"></path>
                    <path d="M7,13.5 L10,13.5" id="Path"></path>
                    <path d="M22,13.5 L25,13.5" id="Path"></path>
                    <circle id="Oval" cx="16" cy="13" r="6"></circle>
                    <path d="M16.5,13.25 C16.6380712,13.25 16.75,13.3619288 16.75,13.5 C16.75,13.6380712 16.6380712,13.75 16.5,13.75 C16.3619288,13.75 16.25,13.6380712 16.25,13.5 C16.25,13.3619288 16.3619288,13.25 16.5,13.25" id="Path"></path>
                </g>
            </g>
        </g>
    </g>
</svg>