<svg width="59px" height="59px" viewBox="0 0 59 59" version="1.1" xmlns="http://www.w3.org/2000/svg" xmlns:xlink="http://www.w3.org/1999/xlink">
    <!-- Generator: sketchtool 53.2 (72643) - https://sketchapp.com -->
    <title>39655C0F-E661-49BE-8129-ED606091A901@1.5x</title>
    <desc>Created with sketchtool.</desc>
    <g id="Page-1" stroke="none" stroke-width="2" fill="none" fill-rule="evenodd">
        <g id="07_SagePresent_DesignStudio1" transform="translate(-180.000000, -937.000000)" stroke="#FFFFFF">
            <g id="link" transform="translate(180.000000, 937.000000)">
                <g id="hyperlink-3" transform="translate(14.000000, 14.000000)" stroke-linecap="round" stroke-linejoin="round">
                    <path d="M16.4220981,23.455932 L10.6228478,29.3677959 C8.48691799,31.544068 5.02507182,31.544068 2.88914205,29.3677959 L1.60087707,28.0545145 C-0.53362569,25.8780676 -0.53362569,22.3498749 1.60087707,20.1734279 L9.9780293,11.6322041 C12.1139591,9.45593196 15.5758052,9.45593196 17.711735,11.6322041 L19,12.9468841" id="Path"></path>
                    <path d="M14.5779019,7.54349807 L20.3771522,1.63329127 C21.4025338,0.587539587 22.7935467,-1.5526852e-16 24.2440051,0 C25.6944635,1.5526852e-16 27.0854763,0.587539587 28.110858,1.63329127 L29.3991229,2.94511663 C31.5336257,5.1214684 31.5336257,8.64950677 29.3991229,10.8258585 L21.0219707,19.3667087 C19.9965891,20.4124604 18.6055762,21 17.1551178,21 C15.7046594,21 14.3136466,20.4124604 13.288265,19.3667087 L12,18.0520863" id="Path"></path>
                </g>
            </g>
        </g>
    </g>
</svg>