<svg width="59px" height="59px" viewBox="0 0 59 59" version="1.1" xmlns="http://www.w3.org/2000/svg" xmlns:xlink="http://www.w3.org/1999/xlink">
    <g id="Page-1" stroke="none" stroke-width="2" fill="none" fill-rule="evenodd">
        <g id="07_SagePresent_DesignStudio1" transform="translate(-110.000000, -937.000000)" stroke="#FFFFFF">
            <g id="pointer" transform="translate(110.000000, 937.000000)">
                <g id="cursor-double-click-2" transform="translate(13.000000, 16.000000)" stroke-linecap="round" stroke-linejoin="round">
                    <path d="M24.7483378,32.4242157 C24.6696921,32.7336645 24.4069794,32.9615559 24.089625,32.9956193 C23.7722706,33.0296828 23.4672087,32.8627338 23.3247278,32.5770198 L15.080926,16.106271 C14.9335728,15.812048 14.9911033,15.4564947 15.2237151,15.2237974 C15.4563268,14.9911 15.8117493,14.9335484 16.1058641,15.0809558 L32.5751379,23.3186222 C32.8618881,23.4606595 33.0297302,23.7664554 32.99563,24.0847274 C32.9615298,24.4029994 32.7327173,24.6662658 32.4223901,24.744284 L26.2758163,26.2830209 L24.7483378,32.4242157 Z" id="Path"></path>
                    <path d="M14.5,29 C6.49187113,29 1.01673056e-15,22.5081289 0,14.5 C-1.01673056e-15,6.49187113 6.49187113,1.52509584e-15 14.5,0 C22.5081289,-1.52509584e-15 29,6.49187113 29,14.5" id="Path"></path>
                    <path d="M12.0313352,22 C8.22181383,20.9764371 5.69365638,17.3729428 6.02993743,13.4459431 C6.36621847,9.51894336 9.4703049,6.39689383 13.3984886,6.03475072 C17.3266722,5.67260762 20.9501573,8.17443573 22,11.9736473" id="Path"></path>
                </g>
            </g>
        </g>
    </g>
</svg>