<svg width="55px" height="73px" viewBox="0 0 55 73" version="1.1" xmlns="http://www.w3.org/2000/svg" xmlns:xlink="http://www.w3.org/1999/xlink">
    <!-- Generator: sketchtool 53.2 (72643) - https://sketchapp.com -->
    <title>89B07A36-9FE1-4213-8A03-B25465C3EDCC@1.5x</title>
    <desc>Created with sketchtool.</desc>
    <defs>
        <polygon id="path-1" points="0 0.106059574 6.988125 0.106059574 6.988125 11.7718468 0 11.7718468"></polygon>
    </defs>
    <g id="Page-1" stroke="none" stroke-width="2" fill="none" fill-rule="evenodd">
        <g id="07_SagePresent_DesignStudio1" transform="translate(-22.000000, -929.000000)">
            <g id="SagePresent-Logo-white" transform="translate(22.000000, 929.000000)">
                <g id="Group-3" transform="translate(0.000000, 49.000000)">
                    <mask id="mask-2" fill="white">
                        <use xlink:href="#path-1"></use>
                    </mask>
                    <g id="Clip-2"></g>
                    <path d="M3.426875,11.7718468 C2.732375,11.7718468 2.144375,11.7059745 1.662875,11.5747404 C1.181375,11.4432511 0.682875,11.2458894 0.167875,10.9826553 L-0.000125,8.16929362 L0.268625,8.16929362 L1.091875,9.9876766 C1.494875,10.3305702 1.886875,10.5795064 2.267625,10.7339745 C2.648375,10.8884426 3.034625,10.9655489 3.426875,10.9655489 C4.087625,10.9655489 4.605375,10.7883574 4.980625,10.4337191 C5.355625,10.0793362 5.543375,9.59882553 5.543375,8.99269787 C5.543375,8.48971915 5.434125,8.09499574 5.215875,7.8090383 C4.997375,7.52308085 4.683875,7.26852766 4.275125,7.04537872 C3.866125,6.82248511 3.381875,6.56793191 2.822125,6.28197447 C2.295625,6.00750638 1.847875,5.73891064 1.478375,5.4756766 C1.108625,5.21295319 0.828625,4.90682553 0.638375,4.55780426 C0.447625,4.2090383 0.352875,3.7716766 0.352875,3.24546383 C0.352875,2.85686809 0.445125,2.47644255 0.629875,2.10469787 C0.814625,1.73320851 1.066625,1.39542128 1.385875,1.09235745 C1.704875,0.789548936 2.063125,0.549293617 2.460875,0.372102128 C2.858375,0.194655319 3.269875,0.106059574 3.695625,0.106059574 C4.210625,0.106059574 4.686625,0.169123404 5.123375,0.294740426 C5.560125,0.420612766 6.007875,0.597804255 6.467375,0.826570213 L6.635125,3.57150638 L6.366625,3.57150638 L5.593625,1.76997447 C5.201625,1.47278298 4.860125,1.25831489 4.569125,1.12682553 C4.277625,0.99533617 3.941875,0.92946383 3.561125,0.92946383 C3.068125,0.92946383 2.662375,1.1010383 2.343375,1.44418723 C2.024125,1.78733617 1.864625,2.21065532 1.864625,2.71363404 C1.864625,3.2970383 2.038125,3.75150638 2.385375,4.07754894 C2.732375,4.40359149 3.275625,4.74954894 4.014875,5.11542128 C4.697625,5.45831489 5.257875,5.77593191 5.694625,6.06750638 C6.131375,6.35933617 6.456125,6.69380426 6.668875,7.07116596 C6.881375,7.44852766 6.988125,7.9290383 6.988125,8.51218723 C6.988125,9.05014468 6.875875,9.52171915 6.652125,9.92742128 C6.427875,10.333634 6.139875,10.6737191 5.786875,10.9481872 C5.434125,11.2229106 5.047875,11.4286979 4.627875,11.5658043 C4.207875,11.703166 3.807375,11.7718468 3.426875,11.7718468" id="Fill-1" fill="#FEFEFE" mask="url(#mask-2)"></path>
                </g>
                <path d="M16.0174935,55.7668688 L19.4911227,55.7668688 L17.7543081,51.3278652 L16.0174935,55.7668688 Z M12,61 L12,60.7112996 L13.1227154,60.1159054 L17.6140992,49 L18.4033943,49 L22.8245431,60.0616566 L24,60.7112996 L24,61 L19.6490862,61 L19.6490862,60.7112996 L21.1929504,60.097912 L19.8772846,56.7594611 L15.6140992,56.7594611 L14.3156658,60.097912 L15.789295,60.7112996 L15.789295,61 L12,61 Z" id="Fill-4" fill="#FEFEFE"></path>
                <path d="M33.6527181,61 C32.5661331,61 31.5955077,60.7531242 30.7415999,60.2588475 C29.8869342,59.7648333 29.216187,59.0911777 28.7298638,58.2381432 C28.2430353,57.3853713 28,56.4117879 28,55.3176556 C28,54.4118317 28.1553708,53.5763936 28.4666177,52.811604 C28.7778645,52.0470771 29.2136607,51.379462 29.7737535,50.8087588 C30.3338463,50.2380556 30.9762982,49.7939419 31.700604,49.4764177 C32.4246572,49.1586308 33.2055534,49 34.0430399,49 C34.6316805,49 35.1349303,49.0351929 35.5537999,49.1058414 C35.9729221,49.1762273 36.345812,49.2762907 36.6744907,49.4057692 C37.0026642,49.5355103 37.3308376,49.6823226 37.6587584,49.8469939 L37.7436439,52.7588146 L37.4723135,52.7588146 L36.3690545,50.7822328 C35.8933419,50.4413342 35.4888726,50.2060143 35.1551411,50.0762732 C34.8211571,49.9470574 34.4391723,49.8821869 34.0094394,49.8821869 C33.1375945,49.8821869 32.3630142,50.0794248 31.6834248,50.4733755 C31.0045934,50.8678514 30.4725431,51.4086144 30.088032,52.0969775 C29.7030155,52.7853407 29.5105073,53.5645751 29.5105073,54.4352061 C29.5105073,55.6118054 29.7171631,56.6119148 30.1307274,57.4352717 C30.5430284,58.2588912 31.1005948,58.8884244 31.8024161,59.3236086 C32.5039848,59.7587928 33.2851336,59.9765162 34.1451046,59.9765162 C34.5187524,59.9765162 34.878,59.9531418 35.2228474,59.9058677 C35.5682001,59.8588562 35.9274477,59.7587928 36.3008429,59.6056773 L36.3008429,56.6938566 L34.7900829,55.9881596 L34.7900829,55.7058283 L39,55.7058283 L39,55.9881596 L37.8285294,56.7471712 L37.8285294,59.5174323 C37.3081004,59.9649603 36.6661537,60.323718 35.9021841,60.5942308 C35.1379619,60.864481 34.3883925,61 33.6527181,61" id="Fill-6" fill="#FEFEFE"></path>
                <polygon id="Fill-8" fill="#FEFEFE" points="44 61 44 60.7091188 45.3927862 59.9817805 45.3927862 50.0182195 44 49.2911518 44 49 52.5124212 49 52.5124212 52.1274466 52.2341748 52.1274466 51.1548692 50.0000902 46.9594116 50.0000902 46.9594116 54.3089204 49.9188232 54.3089204 50.7893146 52.8001263 51.06782 52.8001263 51.06782 56.7818165 50.7893146 56.7818165 49.9188232 55.3092811 46.9594116 55.3092811 46.9594116 60.0001804 51.6421889 60.0001804 52.7214946 57.6909894 53 57.6909894 53 61"></polygon>
                <path d="M2.63149221,67.500042 L2.63149221,69.8547209 L3.44723832,69.8547209 C3.95252778,69.8547209 4.34937005,69.7469576 4.63723353,69.5316828 C4.92509702,69.3166597 5.06916166,69.0394461 5.06916166,68.700042 C5.06916166,68.2757868 4.92350221,67.9696181 4.6324491,67.7817877 C4.34139599,67.5939572 3.92382117,67.500042 3.37999043,67.500042 L2.63149221,67.500042 Z M1,73 L1,72.8544692 L1.76763596,72.4908938 L1.76763596,67.5091062 L1,67.1455308 L1,67 L3.49534847,67 C4.24996013,67 4.85652012,67.1304238 5.31396523,67.3907679 C5.77141035,67.6516156 6,68.0635334 6,68.6272765 C6,68.9606379 5.88012333,69.2562316 5.64010419,69.5135543 C5.40035086,69.7713806 5.0739461,69.9758288 4.66115571,70.1274024 C4.24863112,70.2787243 3.78321195,70.3545111 3.2648982,70.3545111 L2.63149221,70.3545111 L2.63149221,72.4908938 L3.49534847,72.8544692 L3.49534847,73 L1,73 Z" id="Fill-10" fill="#FEFEFE"></path>
                <path d="M10.3460829,67.500042 L9.69714286,67.500042 L9.69714286,69.7454469 L10.4060829,69.7454469 C10.8252535,69.7454469 11.1730876,69.6379354 11.4493088,69.4226605 C11.7252535,69.2076374 11.8635023,68.9331935 11.8635023,68.5998321 C11.8635023,68.2606798 11.7271889,67.9925304 11.4542857,67.795384 C11.1813825,67.5987411 10.8119816,67.500042 10.3460829,67.500042 L10.3460829,67.500042 Z M8,73 L8,72.8544692 L8.79880184,72.4908938 L8.79880184,67.5091062 L8,67.1455308 L8,67 L10.5758525,67 C11.2745622,67 11.8253456,67.1316828 12.2279263,67.3955518 C12.6305069,67.6591691 12.8320737,68.0212337 12.8320737,68.4817457 C12.8320737,68.8211498 12.7054378,69.1258078 12.4527189,69.3952161 C12.1997235,69.665128 11.8635023,69.8695762 11.4443318,70.0090642 L13.341106,72.5271507 L14,72.8544692 L14,73 L12.5624885,73 L10.6256221,70.2452371 L9.69714286,70.2452371 L9.69714286,72.4818296 L10.4458986,72.8544692 L10.4458986,73 L8,73 Z" id="Fill-12" fill="#FEFEFE"></path>
                <polygon id="Fill-14" fill="#FEFEFE" points="17 73 17 72.8544692 17.7738255 72.4911456 17.7738255 67.5091062 17 67.1455308 17 67 21.7292013 67 21.7292013 68.5635753 21.5743826 68.5635753 20.974929 67.500042 18.6440778 67.500042 18.6440778 69.6545531 20.2881556 69.6545531 20.7718969 68.899958 20.9264477 68.899958 20.9264477 70.8908099 20.7718969 70.8908099 20.2881556 70.154595 18.6440778 70.154595 18.6440778 72.5002098 21.2457278 72.5002098 21.8451813 71.3455308 22 71.3455308 22 73"></polygon>
                <path d="M26.9613848,73 C26.5637816,73 26.2274301,72.9660327 25.9517976,72.8985867 C25.6761651,72.8308964 25.3909454,72.7294832 25.0961385,72.5941026 L25,71.1471918 L25.1536618,71.1471918 L25.624767,72.0823932 C25.8556591,72.2588278 26.0798935,72.386633 26.2980027,72.466053 C26.5158455,72.5457174 26.7368842,72.5853053 26.9613848,72.5853053 C27.3395473,72.5853053 27.6359521,72.4941555 27.8508655,72.311856 C28.0655126,72.1293121 28.1728362,71.8824991 28.1728362,71.5704395 C28.1728362,71.3118967 28.1105193,71.1090702 27.9856192,70.9617155 C27.8604527,70.8148495 27.6809587,70.6836232 27.4471372,70.5692583 C27.2130493,70.4544048 26.9358189,70.3236672 26.6151798,70.1765568 C26.3139814,70.0353114 26.0575233,69.8972427 25.8460719,69.7618621 C25.6346205,69.6264815 25.4743009,69.469352 25.3653795,69.2897406 C25.2561917,69.1103735 25.2018642,68.8853093 25.2018642,68.6147925 C25.2018642,68.4148984 25.2545939,68.2194029 25.3605859,68.0280617 C25.4663116,67.8369649 25.6103862,67.6634627 25.7930759,67.5073107 C25.9757656,67.3518918 26.1808256,67.2282409 26.408522,67.1370912 C26.6359521,67.0459414 26.8716378,67 27.1153129,67 C27.4101198,67 27.6825566,67.0325011 27.9326232,67.097259 C28.1824234,67.1620169 28.4388815,67.2531666 28.701731,67.3707083 L28.7978695,68.7824298 L28.6442077,68.7824298 L28.2018642,67.8560257 C27.9773635,67.7030505 27.7818908,67.59284 27.6154461,67.5251497 C27.4484687,67.4574594 27.2561917,67.4237364 27.0383489,67.4237364 C26.7560586,67.4237364 26.5238349,67.5119537 26.3411451,67.6883884 C26.1584554,67.864823 26.0673768,68.0825561 26.0673768,68.3413432 C26.0673768,68.6411844 26.1664447,68.8750458 26.3653795,69.0429275 C26.5637816,69.2103205 26.8748336,69.3884658 27.2980027,69.5763858 C27.6889481,69.7530648 28.0095872,69.9163035 28.2596538,70.0661019 C28.5094541,70.2161447 28.6953395,70.3881807 28.8170439,70.5822099 C28.9387483,70.7764835 29,71.0235409 29,71.3236264 C29,71.6000081 28.9358189,71.8429113 28.807723,72.0513583 C28.6793609,72.2602941 28.514514,72.4350181 28.3123835,72.576508 C28.1105193,72.7177534 27.8892144,72.823321 27.6490013,72.8939437 C27.408522,72.9645664 27.1792277,73 26.9613848,73" id="Fill-16" fill="#FEFEFE"></path>
                <polygon id="Fill-18" fill="#FEFEFE" points="32 73 32 72.8544692 32.7738255 72.4911456 32.7738255 67.5091062 32 67.1455308 32 67 36.7292013 67 36.7292013 68.5635753 36.5743826 68.5635753 35.974929 67.500042 33.6443456 67.500042 33.6443456 69.6545531 35.2881556 69.6545531 35.7716291 68.899958 35.9264477 68.899958 35.9264477 70.8908099 35.7716291 70.8908099 35.2881556 70.154595 33.6443456 70.154595 33.6443456 72.5002098 36.2457278 72.5002098 36.8451813 71.3455308 37 71.3455308 37 73"></polygon>
                <polygon id="Fill-20" fill="#FEFEFE" points="40 72.9547707 40 72.8103369 40.7070196 72.4497522 40.7070196 67.5235101 40.0088102 67.1444338 40.0088102 67 41.3078272 67 44.6833626 71.3307651 44.6833626 67.4872767 43.7994045 67.1444338 43.7994045 67 46 67 46 67.1444338 45.3017906 67.4962725 45.3017906 73 44.9748338 73 41.3254476 68.2991546 41.3254476 72.4587481 42.2089163 72.8103369 42.2089163 72.9547707"></polygon>
                <polygon id="Fill-22" fill="#FEFEFE" points="50.510386 73 50.510386 72.8544692 51.5376079 72.4911456 51.5376079 67.500042 49.8630371 67.500042 49.1644693 68.8365086 49 68.8365086 49 67 55 67 55 68.8365086 54.8355307 68.8365086 54.1369629 67.500042 52.4621076 67.500042 52.4621076 72.4911456 53.4898985 72.8544692 53.4898985 73"></polygon>
                <path d="M18.2229926,27.2488269 L10.3612981,32.4356065 L10.3612981,22.0300398 L18.2229926,27.2488269 Z M19.0532523,27.7861321 L27.7245888,33.0707706 L27.7245888,42.6890067 L11.143714,33.0295806 L19.0532523,27.7861321 Z M27.319107,21.6763838 L19.0540453,26.7133581 L11.1511153,21.4394762 L19.4341514,16.7335953 L27.319107,21.6763838 Z M27.8847726,1.27321404 L27.8847726,10.8416025 L19.4560908,15.6791862 L10.8125089,10.2610085 L27.8847726,1.27321404 Z M38.4500315,16.2860158 L46.6389663,11.3917632 L46.6389663,20.9055816 L38.4500315,16.2860158 Z M37.636689,26.7249018 L29.0792786,21.6866157 L37.5394156,16.8251576 L37.5415303,16.8288305 L37.5560684,16.8204352 L46.1880198,21.6902887 L37.636689,26.7249018 Z M28.6344117,42.7018621 L28.6344117,33.075493 L37.636689,27.7751131 L46.1872268,32.8097263 L28.6344117,42.7018621 Z M37.5423233,15.7741591 L28.7945955,10.838979 L28.7945955,1.29840022 L45.728879,10.8513097 L37.5423233,15.7741591 Z M28.1834652,22.209229 L36.7448405,27.2501386 L28.1834652,32.2910483 L19.9125882,27.2498763 L28.1834652,22.209229 Z M36.6351437,16.3009701 L28.1898091,21.1540328 L20.3246782,16.2238374 L28.3417987,11.6223742 L36.6351437,16.3009701 Z M28.1784429,43.9973764 L48,32.8270418 L38.5285374,27.2501386 L47.0989,22.2039818 L47.0989,22.2039818 L47.0991643,22.2037195 L47.5395376,21.9442493 L47.5485248,21.9442493 L47.5485248,21.9392646 L47.5535471,21.9361163 L47.5485248,21.9277209 L47.5485248,10.8478991 L47.5604197,10.8408155 L28.9804193,0.364150235 L28.3711393,0.020463774 L28.3605661,0.000524712154 L28.3476139,0.00708361407 L28.3346618,0 L28.3346618,0 L28.3230313,0.0199390618 L9,10.1927959 L18.5634493,16.1878947 L9.40442447,21.3948757 L9.45147516,21.4260961 L9.45147516,33.0358772 L9.41605498,33.0589645 L9.45147516,33.079953 L9.45147516,33.0807401 L9.45332547,33.0807401 L27.7245888,43.7358074 L27.7245888,43.7397428 L27.7317257,43.7397428 L28.172099,43.9968517 L28.1739493,44 L28.1757996,43.9989506 L28.1771212,43.9997376 L28.1784429,43.9973764 Z" id="Fill-24" fill="#FEFEFE"></path>
            </g>
        </g>
    </g>
</svg>