<svg width="59px" height="59px" viewBox="0 0 59 59" version="1.1" xmlns="http://www.w3.org/2000/svg" xmlns:xlink="http://www.w3.org/1999/xlink">
    <!-- Generator: sketchtool 53.2 (72643) - https://sketchapp.com -->
    <title>61192F8F-DA9A-4162-918E-8906EC078E88@1.5x</title>
    <desc>Created with sketchtool.</desc>
    <g id="Page-1" stroke="none" stroke-width="2" fill="none" fill-rule="evenodd">
        <g id="07_SagePresent_DesignStudio1" transform="translate(-391.000000, -937.000000)" stroke="#FFFFFF">
            <g id="save" transform="translate(391.000000, 937.000000)">
                <g id="floppy-disk" transform="translate(17.000000, 16.000000)" stroke-linecap="round" stroke-linejoin="round">
                    <path d="M26,24.8695652 C26,25.4938871 25.4938871,26 24.8695652,26 L1.13043478,26 C0.506112891,26 1.25503472e-16,25.4938871 0,24.8695652 L0,5.55495652 C6.40248932e-05,5.25517108 0.119205055,4.96768744 0.331217391,4.75573913 L4.75573913,0.331217391 C4.96768744,0.119205055 5.25517108,6.40248932e-05 5.55495652,0 L24.8695652,0 C25.4938871,0 26,0.506112891 26,1.13043478 L26,24.8695652 Z" id="Path"></path>
                    <path d="M4.11764706,13 L20.8823529,13 C21.4996124,13 22,13.4884166 22,14.0909091 L22,25 L3,25 L3,14.0909091 C3,13.4884166 3.50038763,13 4.11764706,13 Z" id="Path"></path>
                    <path d="M5,0 L20,0 L20,6.85714286 C20,7.48832543 19.4834055,8 18.8461538,8 L6.15384615,8 C5.51659452,8 5,7.48832543 5,6.85714286 L5,0 Z" id="Path"></path>
                    <rect id="Rectangle" x="15" y="2" width="2" height="3"></rect>
                    <path d="M6,16.5 L13,16.5" id="Path"></path>
                    <path d="M7,19.5 L19,19.5" id="Path"></path>
                </g>
            </g>
        </g>
    </g>
</svg>