<?xml version="1.0" encoding="UTF-8"?>
<svg width="28px" height="28px" viewBox="0 0 28 28" version="1.1" xmlns="http://www.w3.org/2000/svg" xmlns:xlink="http://www.w3.org/1999/xlink">
    <!-- Generator: sketchtool 53.2 (72643) - https://sketchapp.com -->
    <title>0EAE3FAA-5B77-47A9-A135-43526625C6F0@1.5x</title>
    <desc>Created with sketchtool.</desc>
    <g id="Page-1" stroke="none" stroke-width="1" fill="none" fill-rule="evenodd">
        <g id="04_SagePresent_Account" transform="translate(-1119.000000, -474.000000)">
            <g id="share-link" transform="translate(1119.000000, 474.000000)">
                <circle id="Oval" fill="#4D575A" cx="14" cy="14" r="14"></circle>
                <g id="insert-link" transform="translate(5.000000, 9.000000)" fill="#FFFFFF" fill-rule="nonzero">
                    <path d="M13.5211265,0 C14.7605631,0 15.8169013,0.490654684 16.6901403,1.47196246 C17.5633801,2.45327103 18,3.62928394 18,5.0000004 C18,6.37071685 17.5633801,7.54672897 16.6901403,8.52803754 C15.8169013,9.50934532 14.7605631,10 13.5211265,10 L9.88732411,10 L9.88732411,8.08411203 L13.5211265,8.08411203 C14.2816902,8.08411203 14.9366197,7.78037402 15.4859156,7.17289721 C16.0352109,6.5654204 16.3098592,5.84112146 16.3098592,5.0000004 C16.3098592,4.15887854 16.0352109,3.4345796 15.4859156,2.82710279 C14.9366197,2.21962598 14.2816902,1.91588797 13.5211265,1.91588797 L9.88732411,1.91588797 L9.88732411,0 L13.5211265,0 Z M5.4084506,5.98130817 L5.4084506,4.01869183 L12.5915494,4.01869183 L12.5915494,5.98130817 L5.4084506,5.98130817 Z M1.69014081,5.0000004 C1.69014081,5.84112146 1.96478914,6.5654204 2.51408437,7.17289721 C3.06338031,7.78037402 3.71830978,8.08411203 4.47887351,8.08411203 L8.11267589,8.08411203 L8.11267589,10 L4.47887351,10 C3.23943692,10 2.18309873,9.50934532 1.30985967,8.52803754 C0.43661989,7.54672897 0,6.37071685 0,5.0000004 C0,3.62928394 0.43661989,2.45327103 1.30985967,1.47196246 C2.18309873,0.490654684 3.23943692,0 4.47887351,0 L8.11267589,0 L8.11267589,1.91588797 L4.47887351,1.91588797 C3.71830978,1.91588797 3.06338031,2.21962598 2.51408437,2.82710279 C1.96478914,3.4345796 1.69014081,4.15887854 1.69014081,5.0000004 Z" id="Shape"></path>
                </g>
            </g>
        </g>
    </g>
</svg>