<?xml version="1.0" encoding="UTF-8"?>
<svg width="40px" height="40px" viewBox="0 0 40 40" version="1.1" xmlns="http://www.w3.org/2000/svg" xmlns:xlink="http://www.w3.org/1999/xlink">
    <!-- Generator: sketchtool 53.2 (72643) - https://sketchapp.com -->
    <title>15119A29-C16C-4E89-8599-184A05E928D3@1.5x</title>
    <desc>Created with sketchtool.</desc>
    <g id="Page-1" stroke="none" stroke-width="1" fill="none" fill-rule="evenodd">
        <g id="05_SagePresent_CreateTour" transform="translate(-661.000000, -608.000000)">
            <g id="upload" transform="translate(661.000000, 608.000000)">
                <circle id="Oval" fill="#4D575A" cx="20" cy="20" r="20"></circle>
                <g id="cloud-upload" transform="translate(9.000000, 11.000000)" fill="#FFFFFF" fill-rule="nonzero">
                    <path d="M13.4316404,9.566406 L16.3066404,9.566406 L11.5,4.80468763 L6.69335957,9.566406 L9.56835957,9.566406 L9.56835957,13.4296876 L13.4316404,13.4296876 L13.4316404,9.566406 Z M18.5527346,6.73632807 C19.7805988,6.8261722 20.8287762,7.32779913 21.6972654,8.24121117 C22.5657554,9.15462243 23,10.2402339 23,11.4980472 C23,12.8157555 22.5283206,13.9462891 21.584961,14.8896487 C20.6416015,15.8330075 19.5110679,16.3046876 18.1933596,16.3046876 L5.75,16.3046876 C4.1627608,16.3046876 2.8076169,15.7431641 1.6845706,14.620117 C0.561523533,13.49707 0,12.1419268 0,10.5546876 C0,9.08723933 0.494140433,7.8069658 1.48242207,6.71386703 C2.47070293,5.62076827 3.68359413,4.9993489 5.12109413,4.84960893 C5.75,3.68164057 6.63346373,2.738281 7.77148457,2.019531 C8.9095054,1.300781 10.1523441,0.941406 11.5,0.941406 C13.2369792,0.941406 14.7643225,1.48795577 16.0820309,2.58105453 C17.3997392,3.6741533 18.2233071,5.05924473 18.5527346,6.73632807 Z" id="Shape"></path>
                </g>
            </g>
        </g>
    </g>
</svg>